<svg width="4000.0000000000005" height="800" xmlns="http://www.w3.org/2000/svg">
 <metadata id="metadata146">image/svg+xml</metadata>
 <defs>
  <linearGradient id="SVGID_1_" x1="1.008347" y1="-0.610035" x2="-0.608178" y2="3.289488">
   <stop offset="0" id="stop12" stop-color="#36DEF9"/>
   <stop offset="0.0482" id="stop14" stop-color="#39D3F9"/>
   <stop offset="0.3915" id="stop16" stop-color="#5087FB"/>
   <stop offset="0.6755" id="stop18" stop-color="#6050FC"/>
   <stop offset="0.8861" id="stop20" stop-color="#6A2EFD"/>
   <stop offset="1" id="stop22" stop-color="#6E21FD"/>
  </linearGradient>
  <linearGradient id="SVGID_2_" x1="1.166385" y1="-1.151781" x2="-0.450738" y2="2.788463">
   <stop offset="0" id="stop29" stop-color="#36DEF9"/>
   <stop offset="0.0482" id="stop31" stop-color="#39D3F9"/>
   <stop offset="0.3915" id="stop33" stop-color="#5087FB"/>
   <stop offset="0.6755" id="stop35" stop-color="#6050FC"/>
   <stop offset="0.8861" id="stop37" stop-color="#6A2EFD"/>
   <stop offset="1" id="stop39" stop-color="#6E21FD"/>
  </linearGradient>
  <linearGradient id="SVGID_3_" x1="1.552184" y1="-0.697411" x2="-0.540757" y2="1.684452">
   <stop offset="0" id="stop48" stop-color="#36DEF9"/>
   <stop offset="0.0482" id="stop50" stop-color="#39D3F9"/>
   <stop offset="0.3915" id="stop52" stop-color="#5087FB"/>
   <stop offset="0.6755" id="stop54" stop-color="#6050FC"/>
   <stop offset="0.8861" id="stop56" stop-color="#6A2EFD"/>
   <stop offset="1" id="stop58" stop-color="#6E21FD"/>
  </linearGradient>
  <linearGradient id="SVGID_4_" x1="3.240508" y1="-4.495625" x2="-1.720527" y2="4.547797">
   <stop offset="0" id="stop67" stop-color="#36DEF9"/>
   <stop offset="0.0482" id="stop69" stop-color="#39D3F9"/>
   <stop offset="0.3915" id="stop71" stop-color="#5087FB"/>
   <stop offset="0.6755" id="stop73" stop-color="#6050FC"/>
   <stop offset="0.8861" id="stop75" stop-color="#6A2EFD"/>
   <stop offset="1" id="stop77" stop-color="#6E21FD"/>
  </linearGradient>
  <linearGradient id="SVGID_5_" x1="2.237755" y1="-2.667749" x2="-2.72328" y2="6.375672">
   <stop offset="0" id="stop86" stop-color="#36DEF9"/>
   <stop offset="0.0482" id="stop88" stop-color="#39D3F9"/>
   <stop offset="0.3915" id="stop90" stop-color="#5087FB"/>
   <stop offset="0.6755" id="stop92" stop-color="#6050FC"/>
   <stop offset="0.8861" id="stop94" stop-color="#6A2EFD"/>
   <stop offset="1" id="stop96" stop-color="#6E21FD"/>
  </linearGradient>
 </defs>
 <g stroke="null">
  <title>background</title>
  <rect x="-1" y="-1" width="4002" height="802" id="canvas_background" fill="none" stroke="null"/>
 </g>
 <g stroke="null">
  <title>Layer 1</title>
  <rect stroke="null" width="4000" height="800" id="rect10" x="0" y="0" stroke-width="2.507766" fill="#2e3e4b"/>
  <g id="g107" transform="matrix(7.836784905206204,0,0,7.482186638249994,-879.6618287682646,-1317.3863554422087) " stroke="null">
   <g id="g65" stroke="null">
    <g id="g46" stroke="null">
     <g id="g27" stroke="null">
      <path d="m208.88,228.339505l-5.227,-5.227l0.417,-0.417c5.065,-5.066 5.065,-13.308 0,-18.375c-5.065,-5.064 -13.305,-5.066 -18.376,0l-11.801,11.801l-5.227,-5.227l11.801,-11.801c3.849,-3.851 8.969,-5.972 14.414,-5.972c5.446,0 10.566,2.121 14.415,5.972c3.851,3.849 5.972,8.969 5.972,14.414c0,5.445 -2.121,10.565 -5.972,14.414l-0.416,0.418z" id="path25" fill="url(#SVGID_1_)" stroke="null"/>
     </g>
     <g id="g44" stroke="null">
      <path d="m133.32,227.978505c-8.005,-8.005 -8.005,-20.936 -0.056,-28.884c3.849,-3.851 8.969,-5.97 14.415,-5.97c5.445,0 10.565,2.12 14.414,5.97l11.801,11.801l-5.227,5.227l-11.801,-11.801c-5.069,-5.066 -13.309,-5.064 -18.376,0c-5.065,5.066 -5.065,13.308 0,18.375l-5.17,5.282z" id="path42" fill="url(#SVGID_2_)" stroke="null"/>
     </g>
    </g>
    <g id="g63" stroke="null">
     <path d="m171.28,265.938505l-10.337,-10.337c-4.939,-4.939 -7.66,-11.508 -7.66,-18.491c0,-6.985 2.72,-13.553 7.66,-18.493l10.337,-10.337l10.337,10.337c4.939,4.939 7.66,11.508 7.66,18.493c0,6.984 -2.72,13.552 -7.66,18.491l-10.337,10.337zm0,-47.204l-5.11,5.11c-7.315,7.315 -7.315,19.216 0,26.531l5.11,5.11l5.11,-5.11c7.315,-7.315 7.315,-19.216 0,-26.531l-5.11,-5.11z" id="path61" fill="url(#SVGID_3_)" stroke="null"/>
    </g>
   </g>
   <g id="g105" stroke="null">
    <g id="g84" stroke="null">
     <g id="g82" stroke="null">
      <path d="m138.366,235.523505c-4.187,0 -7.593,-3.406 -7.593,-7.593c0,-4.187 3.406,-7.593 7.593,-7.593c4.186,0 7.592,3.406 7.592,7.593c0,4.187 -3.406,7.593 -7.592,7.593z" id="path80" fill="url(#SVGID_4_)" stroke="null"/>
     </g>
    </g>
    <g id="g103" stroke="null">
     <g id="g101" stroke="null">
      <path d="m204.195,235.523505c-4.186,0 -7.592,-3.406 -7.592,-7.593c0,-4.187 3.406,-7.593 7.592,-7.593c4.187,0 7.593,3.406 7.593,7.593c0,4.187 -3.406,7.593 -7.593,7.593z" id="path99" fill="url(#SVGID_5_)" stroke="null"/>
     </g>
    </g>
   </g>
  </g>
  <text xml:space="preserve" x="-468.62899" y="1215.389491" id="text3839" transform="matrix(2.3317936338853262,0,0,2.3798487346106154,1944.6242183411837,-2355.6140123972637) " stroke-width="3.687042" fill="#e6e7e8" font-family="sans-serif" font-size="250" font-weight="normal" font-style="normal">
   <tspan id="tspan3837" x="-468.785067" y="1215.389491" stroke-width="3.687042" fill="#e6e7e8" text-anchor="start" font-family="'Century Gothic'" font-size="147.479996px" font-weight="600" font-style="normal" stroke="null">
    <tspan id="tspan68" text-anchor="start" font-family="'Century Gothic'" font-size="147.479996px" font-weight="normal" font-style="normal" stroke="null">The</tspan>ObsGynaePod</tspan>
  </text>
 </g>
</svg>