<svg width="8650" height="1400" xmlns="http://www.w3.org/2000/svg" style="vector-effect: non-scaling-stroke;" stroke="null">
 <metadata stroke="null" id="metadata146">image/svg+xml</metadata>
 <defs stroke="null">
  <linearGradient style="vector-effect: non-scaling-stroke;" stroke="null" y2="3.289488" x2="-0.608178" y1="-0.610035" x1="1.008347" id="SVGID_1_">
   <stop style="vector-effect: non-scaling-stroke;" stroke="null" stop-color="#36DEF9" id="stop12" offset="0"/>
   <stop style="vector-effect: non-scaling-stroke;" stroke="null" stop-color="#39D3F9" id="stop14" offset="0.0482"/>
   <stop style="vector-effect: non-scaling-stroke;" stroke="null" stop-color="#5087FB" id="stop16" offset="0.3915"/>
   <stop style="vector-effect: non-scaling-stroke;" stroke="null" stop-color="#6050FC" id="stop18" offset="0.6755"/>
   <stop style="vector-effect: non-scaling-stroke;" stroke="null" stop-color="#6A2EFD" id="stop20" offset="0.8861"/>
   <stop style="vector-effect: non-scaling-stroke;" stroke="null" stop-color="#6E21FD" id="stop22" offset="1"/>
  </linearGradient>
  <linearGradient style="vector-effect: non-scaling-stroke;" stroke="null" y2="2.788463" x2="-0.450738" y1="-1.151781" x1="1.166385" id="SVGID_2_">
   <stop style="vector-effect: non-scaling-stroke;" stroke="null" stop-color="#36DEF9" id="stop29" offset="0"/>
   <stop style="vector-effect: non-scaling-stroke;" stroke="null" stop-color="#39D3F9" id="stop31" offset="0.0482"/>
   <stop style="vector-effect: non-scaling-stroke;" stroke="null" stop-color="#5087FB" id="stop33" offset="0.3915"/>
   <stop style="vector-effect: non-scaling-stroke;" stroke="null" stop-color="#6050FC" id="stop35" offset="0.6755"/>
   <stop style="vector-effect: non-scaling-stroke;" stroke="null" stop-color="#6A2EFD" id="stop37" offset="0.8861"/>
   <stop style="vector-effect: non-scaling-stroke;" stroke="null" stop-color="#6E21FD" id="stop39" offset="1"/>
  </linearGradient>
  <linearGradient style="vector-effect: non-scaling-stroke;" stroke="null" y2="1.684452" x2="-0.540757" y1="-0.697411" x1="1.552184" id="SVGID_3_">
   <stop style="vector-effect: non-scaling-stroke;" stroke="null" stop-color="#36DEF9" id="stop48" offset="0"/>
   <stop style="vector-effect: non-scaling-stroke;" stroke="null" stop-color="#39D3F9" id="stop50" offset="0.0482"/>
   <stop style="vector-effect: non-scaling-stroke;" stroke="null" stop-color="#5087FB" id="stop52" offset="0.3915"/>
   <stop style="vector-effect: non-scaling-stroke;" stroke="null" stop-color="#6050FC" id="stop54" offset="0.6755"/>
   <stop style="vector-effect: non-scaling-stroke;" stroke="null" stop-color="#6A2EFD" id="stop56" offset="0.8861"/>
   <stop style="vector-effect: non-scaling-stroke;" stroke="null" stop-color="#6E21FD" id="stop58" offset="1"/>
  </linearGradient>
  <linearGradient style="vector-effect: non-scaling-stroke;" stroke="null" y2="4.547797" x2="-1.720527" y1="-4.495625" x1="3.240508" id="SVGID_4_">
   <stop style="vector-effect: non-scaling-stroke;" stroke="null" stop-color="#36DEF9" id="stop67" offset="0"/>
   <stop style="vector-effect: non-scaling-stroke;" stroke="null" stop-color="#39D3F9" id="stop69" offset="0.0482"/>
   <stop style="vector-effect: non-scaling-stroke;" stroke="null" stop-color="#5087FB" id="stop71" offset="0.3915"/>
   <stop style="vector-effect: non-scaling-stroke;" stroke="null" stop-color="#6050FC" id="stop73" offset="0.6755"/>
   <stop style="vector-effect: non-scaling-stroke;" stroke="null" stop-color="#6A2EFD" id="stop75" offset="0.8861"/>
   <stop style="vector-effect: non-scaling-stroke;" stroke="null" stop-color="#6E21FD" id="stop77" offset="1"/>
  </linearGradient>
  <linearGradient style="vector-effect: non-scaling-stroke;" stroke="null" y2="6.375672" x2="-2.72328" y1="-2.667749" x1="2.237755" id="SVGID_5_">
   <stop style="vector-effect: non-scaling-stroke;" stroke="null" stop-color="#36DEF9" id="stop86" offset="0"/>
   <stop style="vector-effect: non-scaling-stroke;" stroke="null" stop-color="#39D3F9" id="stop88" offset="0.0482"/>
   <stop style="vector-effect: non-scaling-stroke;" stroke="null" stop-color="#5087FB" id="stop90" offset="0.3915"/>
   <stop style="vector-effect: non-scaling-stroke;" stroke="null" stop-color="#6050FC" id="stop92" offset="0.6755"/>
   <stop style="vector-effect: non-scaling-stroke;" stroke="null" stop-color="#6A2EFD" id="stop94" offset="0.8861"/>
   <stop style="vector-effect: non-scaling-stroke;" stroke="null" stop-color="#6E21FD" id="stop96" offset="1"/>
  </linearGradient>
 </defs>
 <g stroke="null">
  <title stroke="null">background</title>
  <rect stroke="null" fill="none" id="canvas_background" height="1402" width="8652" y="-1" x="-1"/>
 </g>
 <g stroke="null">
  <title stroke="null">Layer 1</title>
  <rect stroke="null" fill="#2e3e4b" stroke-width="2.507766" y="0" x="0" id="rect10" height="1400" width="8650"/>
  <g style="vector-effect: non-scaling-stroke;" stroke="null" transform="matrix(13.108888,0,0,12.515738,-1548.3356,-2286.8062) " id="g107">
   <g style="vector-effect: non-scaling-stroke;" stroke="null" id="g65">
    <g style="vector-effect: non-scaling-stroke;" stroke="null" id="g46">
     <g style="vector-effect: non-scaling-stroke;" stroke="null" id="g27">
      <path style="vector-effect: non-scaling-stroke;" stroke="null" fill="url(#SVGID_1_)" id="path25" d="m208.88,228.309l-5.227,-5.227l0.417,-0.417c5.065,-5.066 5.065,-13.308 0,-18.375c-5.065,-5.064 -13.305,-5.066 -18.376,0l-11.801,11.801l-5.227,-5.227l11.801,-11.801c3.849,-3.851 8.969,-5.972 14.414,-5.972c5.446,0 10.566,2.121 14.415,5.972c3.851,3.849 5.972,8.969 5.972,14.414c0,5.445 -2.121,10.565 -5.972,14.414l-0.416,0.418z"/>
     </g>
     <g style="vector-effect: non-scaling-stroke;" stroke="null" id="g44">
      <path style="vector-effect: non-scaling-stroke;" stroke="null" fill="url(#SVGID_2_)" id="path42" d="m133.32,227.948c-8.005,-8.005 -8.005,-20.936 -0.056,-28.884c3.849,-3.851 8.969,-5.97 14.415,-5.97c5.445,0 10.565,2.12 14.414,5.97l11.801,11.801l-5.227,5.227l-11.801,-11.801c-5.069,-5.066 -13.309,-5.064 -18.376,0c-5.065,5.066 -5.065,13.308 0,18.375l-5.17,5.282z"/>
     </g>
    </g>
    <g style="vector-effect: non-scaling-stroke;" stroke="null" id="g63">
     <path style="vector-effect: non-scaling-stroke;" stroke="null" fill="url(#SVGID_3_)" id="path61" d="m171.28,265.908l-10.337,-10.337c-4.939,-4.939 -7.66,-11.508 -7.66,-18.491c0,-6.985 2.72,-13.553 7.66,-18.493l10.337,-10.337l10.337,10.337c4.939,4.939 7.66,11.508 7.66,18.493c0,6.984 -2.72,13.552 -7.66,18.491l-10.337,10.337zm0,-47.204l-5.11,5.11c-7.315,7.315 -7.315,19.216 0,26.531l5.11,5.11l5.11,-5.11c7.315,-7.315 7.315,-19.216 0,-26.531l-5.11,-5.11z"/>
    </g>
   </g>
   <g style="vector-effect: non-scaling-stroke;" stroke="null" id="g105">
    <g style="vector-effect: non-scaling-stroke;" stroke="null" id="g84">
     <g style="vector-effect: non-scaling-stroke;" stroke="null" id="g82">
      <path style="vector-effect: non-scaling-stroke;" stroke="null" fill="url(#SVGID_4_)" id="path80" d="m138.366,235.493c-4.187,0 -7.593,-3.406 -7.593,-7.593c0,-4.187 3.406,-7.593 7.593,-7.593c4.186,0 7.592,3.406 7.592,7.593c0,4.187 -3.406,7.593 -7.592,7.593z"/>
     </g>
    </g>
    <g style="vector-effect: non-scaling-stroke;" stroke="null" id="g103">
     <g style="vector-effect: non-scaling-stroke;" stroke="null" id="g101">
      <path style="vector-effect: non-scaling-stroke;" stroke="null" fill="url(#SVGID_5_)" id="path99" d="m204.195,235.493c-4.186,0 -7.592,-3.406 -7.592,-7.593c0,-4.187 3.406,-7.593 7.592,-7.593c4.187,0 7.593,3.406 7.593,7.593c0,4.187 -3.406,7.593 -7.593,7.593z"/>
     </g>
    </g>
   </g>
  </g>
  <text style="vector-effect: non-scaling-stroke;" font-style="normal" font-weight="normal" font-size="250" font-family="sans-serif" fill="#e6e7e8" stroke-width="3.687042" transform="matrix(5.366881902977039,0,0,5.477486051937923,2675.42789271335,-5485.788412242123) " id="text3839" y="1166.822591" x="-230.968972" xml:space="preserve">
   <tspan stroke="null" style="vector-effect: non-scaling-stroke;" font-style="normal" font-weight="600" font-size="147.479996px" font-family="'Century Gothic'" text-anchor="start" fill="#e6e7e8" stroke-width="3.687042" y="1166.822591" x="-231.125049" id="tspan3837">
    <tspan stroke="null" style="vector-effect: non-scaling-stroke;" font-style="normal" font-weight="normal" font-size="147.479996px" font-family="'Century Gothic'" text-anchor="start" id="tspan68">The</tspan>ObsGynaePod</tspan>
  </text>
 </g>
</svg>